<!-- Generator: Adobe Illustrator 21.0.0, SVG Export Plug-In -->
<svg version="1.1"
xmlns="http://www.w3.org/2000/svg"  
x="0px" y="0px" width="100px" height="21px" viewBox="0 0 100 21"  
 > 
<g fill="#404041">
<path  d="M39.1,8.4c-0.2-0.2-0.3-0.4-0.6-0.5c-0.2-0.1-0.5-0.2-0.8-0.3c-0.3-0.1-0.6-0.1-0.9-0.1c-0.5,0-1,0.1-1.5,0.2
c-0.5,0.1-0.9,0.3-1.3,0.5v1.1c0.3-0.3,0.7-0.4,1.2-0.6c0.4-0.1,0.9-0.2,1.3-0.2c0.6,0,1.1,0.1,1.5,0.4c0.3,0.3,0.5,0.7,0.5,1.3
v0.9C38.4,11,38.2,11,38,10.9c-0.2-0.1-0.5-0.2-0.8-0.2c-0.3-0.1-0.7-0.1-1.1-0.1c-0.5,0-1,0.1-1.4,0.3c-0.4,0.2-0.7,0.4-1,0.8
c-0.2,0.4-0.4,0.9-0.4,1.5c0,0.5,0.1,0.8,0.3,1.1c0.2,0.3,0.4,0.5,0.7,0.7c0.3,0.2,0.6,0.3,0.9,0.4c0.3,0.1,0.7,0.1,1,0.1
c0.6,0,1.1,0,1.6-0.1c0.5-0.1,0.9-0.3,1.2-0.5c0.3-0.3,0.5-0.7,0.5-1.2V10c0-0.3,0-0.6-0.1-0.9C39.4,8.8,39.3,8.6,39.1,8.4z
M38.5,13.7c0,0.3-0.2,0.6-0.5,0.7c-0.3,0.1-0.8,0.1-1.5,0.1c-0.3,0-0.7,0-1-0.1c-0.3-0.1-0.6-0.2-0.8-0.5
c-0.2-0.2-0.3-0.5-0.3-0.9c0-0.5,0.2-0.8,0.5-1.1c0.3-0.2,0.8-0.4,1.5-0.4c0.5,0,1,0.1,1.4,0.2c0.2,0.1,0.5,0.2,0.6,0.2V13.7z"/>
<path  d="M43.3,5.5h-1.1v2.1h-1.3v1h1.3v4.7c0,0.6,0.2,1.1,0.5,1.5c0.4,0.3,0.8,0.5,1.3,0.5c0.2,0,0.4,0,0.6-0.1
c0.2,0,0.4-0.1,0.5-0.1v-1c-0.1,0.1-0.3,0.1-0.4,0.1c-0.2,0-0.3,0.1-0.5,0.1c-0.4,0-0.7-0.1-0.8-0.3c-0.1-0.2-0.2-0.5-0.2-1V8.7h2
v-1h-2V5.5z"/>
<path  d="M52.4,8.4c-0.2-0.2-0.3-0.4-0.6-0.5c-0.2-0.1-0.5-0.2-0.8-0.3c-0.3-0.1-0.6-0.1-0.9-0.1c-0.5,0-1,0.1-1.5,0.2
c-0.5,0.1-0.9,0.3-1.3,0.5v1.1C47.6,9,48,8.8,48.5,8.7c0.4-0.1,0.9-0.2,1.3-0.2c0.6,0,1.1,0.1,1.5,0.4c0.3,0.3,0.5,0.7,0.5,1.3v0.9
c-0.2-0.1-0.3-0.2-0.5-0.2c-0.2-0.1-0.5-0.2-0.8-0.2c-0.3-0.1-0.7-0.1-1.1-0.1c-0.5,0-1,0.1-1.4,0.3c-0.4,0.2-0.7,0.4-1,0.8
c-0.2,0.4-0.4,0.9-0.4,1.5c0,0.5,0.1,0.8,0.3,1.1c0.2,0.3,0.4,0.5,0.7,0.7c0.3,0.2,0.6,0.3,0.9,0.4c0.3,0.1,0.7,0.1,1,0.1
c0.6,0,1.1,0,1.6-0.1c0.5-0.1,0.9-0.3,1.2-0.5c0.3-0.3,0.5-0.7,0.5-1.2V10c0-0.3,0-0.6-0.1-0.9C52.6,8.8,52.5,8.6,52.4,8.4z
M51.7,13.7c0,0.3-0.2,0.6-0.5,0.7c-0.3,0.1-0.8,0.1-1.5,0.1c-0.3,0-0.7,0-1-0.1c-0.3-0.1-0.6-0.2-0.8-0.5
c-0.2-0.2-0.3-0.5-0.3-0.9c0-0.5,0.2-0.8,0.5-1.1c0.3-0.2,0.8-0.4,1.5-0.4c0.5,0,1,0.1,1.4,0.2c0.2,0.1,0.5,0.2,0.6,0.2V13.7z"/>
<path  d="M66.2,15.2v-4.9c0-0.6-0.1-1.1-0.3-1.5c-0.2-0.4-0.5-0.7-0.9-0.9c-0.4-0.2-1-0.3-1.8-0.3c-0.4,0-0.7,0-1.1,0.1
C61.7,7.7,61.4,7.8,61,8c-0.1,0.1-0.2,0.1-0.4,0.2c-0.1-0.1-0.3-0.2-0.4-0.3c-0.4-0.2-1-0.3-1.8-0.3c-0.3,0-0.6,0-0.8,0
c-0.3,0-0.6,0.1-0.8,0.1C56.5,7.8,56.3,7.9,56,8c-0.3,0.1-0.5,0.2-0.8,0.3v7h1.1V8.8c0.3-0.1,0.7-0.2,1-0.2c0.3-0.1,0.7-0.1,1-0.1
c0.5,0,0.8,0.1,1.1,0.2C59.7,8.8,59.9,9,60,9.2c0.1,0.2,0.2,0.4,0.3,0.6c0,0.2,0.1,0.4,0.1,0.6v4.9h1.1v-4.9c0-0.5-0.1-0.9-0.2-1.3
c0.3-0.2,0.6-0.3,0.9-0.4c0.3-0.1,0.7-0.1,1-0.1c0.5,0,0.8,0.1,1.1,0.2c0.3,0.1,0.5,0.3,0.6,0.5c0.1,0.2,0.2,0.4,0.3,0.6
c0,0.2,0.1,0.4,0.1,0.6v4.9H66.2z"/>
<path  d="M74.3,10c0-0.3,0-0.6-0.1-0.9c-0.1-0.3-0.2-0.5-0.4-0.7c-0.2-0.2-0.3-0.4-0.6-0.5c-0.2-0.1-0.5-0.2-0.8-0.3
c-0.3-0.1-0.6-0.1-0.9-0.1c-0.5,0-1,0.1-1.5,0.2c-0.5,0.1-0.9,0.3-1.3,0.5v1.1c0.3-0.3,0.7-0.4,1.2-0.6c0.4-0.1,0.9-0.2,1.3-0.2
c0.6,0,1.1,0.1,1.5,0.4c0.3,0.3,0.5,0.7,0.5,1.3v0.9C73,11,72.9,11,72.7,10.9c-0.2-0.1-0.5-0.2-0.8-0.2c-0.3-0.1-0.7-0.1-1.1-0.1
c-0.5,0-1,0.1-1.4,0.3c-0.4,0.2-0.7,0.4-1,0.8S68,12.5,68,13.2c0,0.5,0.1,0.8,0.3,1.1c0.2,0.3,0.4,0.5,0.7,0.7
c0.3,0.2,0.6,0.3,0.9,0.4c0.3,0.1,0.7,0.1,1,0.1c0.6,0,1.1,0,1.6-0.1c0.5-0.1,0.9-0.3,1.2-0.5c0.3-0.3,0.5-0.7,0.5-1.2V10z
M73.2,13.7c0,0.3-0.2,0.6-0.5,0.7c-0.3,0.1-0.8,0.1-1.5,0.1c-0.3,0-0.7,0-1-0.1c-0.3-0.1-0.6-0.2-0.8-0.5
c-0.2-0.2-0.3-0.5-0.3-0.9c0-0.5,0.2-0.8,0.5-1.1c0.3-0.2,0.8-0.4,1.5-0.4c0.5,0,1,0.1,1.4,0.2c0.2,0.1,0.5,0.2,0.6,0.2V13.7z"/>
<path  d="M80.4,11.6c-0.2-0.2-0.5-0.3-0.8-0.4c-0.3-0.1-0.5-0.2-0.8-0.3c-0.3-0.1-0.6-0.2-0.9-0.3
c-0.3-0.1-0.5-0.2-0.7-0.4s-0.3-0.4-0.3-0.7c0-0.3,0.2-0.6,0.5-0.8c0.3-0.2,0.7-0.3,1.1-0.3c0.4,0,0.8,0.1,1.1,0.2
c0.3,0.1,0.6,0.3,1,0.5V8.1c-0.3-0.2-0.7-0.3-1-0.4c-0.3-0.1-0.7-0.2-1.2-0.2c-0.3,0-0.6,0-0.9,0.1c-0.3,0.1-0.6,0.2-0.8,0.4
c-0.3,0.2-0.5,0.4-0.6,0.7C76.1,9,76,9.3,76,9.7c0,0.4,0.1,0.7,0.2,1c0.2,0.2,0.4,0.4,0.6,0.6c0.2,0.2,0.5,0.3,0.8,0.4
c0.3,0.1,0.6,0.2,0.9,0.3c0.3,0.1,0.5,0.2,0.8,0.3c0.2,0.1,0.4,0.2,0.6,0.4c0.2,0.2,0.2,0.4,0.2,0.7c0,0.4-0.2,0.6-0.5,0.9
c-0.3,0.2-0.7,0.3-1.2,0.3c-0.3,0-0.6,0-0.9-0.1c-0.3-0.1-0.5-0.1-0.7-0.3c-0.2-0.1-0.5-0.3-0.8-0.4v1.2c0.4,0.2,0.8,0.4,1.1,0.5
c0.4,0.1,0.8,0.2,1.4,0.2c0.4,0,0.9-0.1,1.3-0.2c0.4-0.2,0.8-0.4,1-0.8c0.3-0.3,0.4-0.8,0.4-1.3c0-0.4-0.1-0.7-0.2-1
C80.9,11.9,80.7,11.7,80.4,11.6z"/>
<path  d="M84.5,5.5h-1.1v2.1h-1.3v1h1.3v4.7c0,0.6,0.2,1.1,0.5,1.5c0.4,0.3,0.8,0.5,1.3,0.5c0.2,0,0.4,0,0.6-0.1
c0.2,0,0.4-0.1,0.5-0.1v-1c-0.1,0.1-0.3,0.1-0.4,0.1c-0.2,0-0.3,0.1-0.5,0.1c-0.4,0-0.7-0.1-0.8-0.3c-0.1-0.2-0.2-0.5-0.2-1V8.7h2
v-1h-2V5.5z"/>
<path  d="M94,9.6c-0.2-0.6-0.6-1.1-1.1-1.5c-0.5-0.4-1.1-0.5-1.9-0.5c-1,0-1.8,0.3-2.4,1c-0.6,0.7-0.9,1.6-0.9,2.9
c0,0.9,0.1,1.6,0.4,2.2c0.3,0.6,0.7,1,1.2,1.3c0.5,0.3,1.1,0.4,1.9,0.4c0.5,0,1,0,1.4-0.1c0.4-0.1,0.8-0.2,1.2-0.4v-1.1
c-0.2,0.1-0.4,0.2-0.7,0.3c-0.3,0.1-0.6,0.2-0.9,0.2c-0.3,0.1-0.7,0.1-1,0.1c-0.8,0-1.4-0.2-1.8-0.7c-0.4-0.5-0.6-1.2-0.6-2.1h5.5
C94.3,10.9,94.2,10.2,94,9.6z M88.9,10.7c0-0.3,0.1-0.6,0.2-0.9c0.2-0.4,0.4-0.8,0.7-0.9c0.3-0.2,0.7-0.3,1.2-0.3
c0.7,0,1.3,0.2,1.6,0.6c0.3,0.3,0.5,0.9,0.6,1.5H88.9z"/>
<path  d="M99.8,7.6c-0.1,0-0.2,0-0.2,0c-0.5,0-1,0.1-1.5,0.2c-0.5,0.1-0.9,0.2-1.3,0.3c-0.3,0.1-0.6,0.2-0.7,0.3v7h1.1
V8.8c0.2,0,0.5-0.1,0.7-0.1c0.2,0,0.5-0.1,0.7-0.1c0.2,0,0.5,0,0.7,0c0.2,0,0.5,0,0.8,0v-1C99.9,7.6,99.8,7.6,99.8,7.6z"/>
<path  d="M30.7,6.4c-0.8-0.8-2-1.3-3.6-1.3H24v1l3.1,0c1.3,0,2.2,0.3,2.8,1c0.6,0.6,0.9,1.7,0.9,3.1
c0,1.4-0.3,2.4-0.9,3.1c-0.6,0.6-1.5,1-2.8,1h-2v-7H24v8h3.2c1.6,0,2.8-0.4,3.6-1.3c0.8-0.8,1.2-2.1,1.2-3.8
C31.9,8.5,31.5,7.2,30.7,6.4z"/>
<rect x="24" y="17.6"  width="0.3" height="2.8"/>
<path   d="M32.6,18.3c-0.1-0.1-0.3-0.1-0.5-0.1c-0.1,0-0.2,0-0.2,0c-0.1,0-0.2,0-0.2,0c-0.1,0-0.1,0-0.2,0.1
c-0.1,0-0.1,0.1-0.2,0.1v1.9h0.3v-1.8c0.1,0,0.2,0,0.3-0.1c0.1,0,0.2,0,0.3,0c0.1,0,0.2,0,0.3,0c0.1,0,0.1,0.1,0.2,0.1
c0,0.1,0.1,0.1,0.1,0.2c0,0.1,0,0.1,0,0.2v1.4H33V19c0-0.2,0-0.3-0.1-0.4C32.9,18.5,32.8,18.4,32.6,18.3z"/>
<path   d="M41.3,18.3c-0.1-0.1-0.3-0.1-0.5-0.1c-0.1,0-0.2,0-0.2,0c-0.1,0-0.2,0-0.2,0c-0.1,0-0.1,0-0.2,0.1
c-0.1,0-0.1,0.1-0.2,0.1v1.9h0.3v-1.8c0.1,0,0.2,0,0.3-0.1c0.1,0,0.2,0,0.3,0c0.1,0,0.2,0,0.3,0c0.1,0,0.1,0.1,0.2,0.1
c0,0.1,0.1,0.1,0.1,0.2c0,0.1,0,0.1,0,0.2v1.4h0.3V19c0-0.2,0-0.3-0.1-0.4C41.5,18.5,41.5,18.4,41.3,18.3z"/>
<path  d="M50.1,18.4c-0.1-0.1-0.3-0.1-0.6-0.1c-0.3,0-0.5,0.1-0.7,0.3c-0.2,0.2-0.2,0.5-0.2,0.8c0,0.3,0.1,0.6,0.2,0.8
c0.2,0.2,0.4,0.3,0.7,0.3c0.3,0,0.5-0.1,0.7-0.3c0.2-0.2,0.2-0.5,0.2-0.8c0-0.2,0-0.4-0.1-0.6C50.3,18.6,50.2,18.5,50.1,18.4z
M50.1,19.8c0,0.1-0.1,0.2-0.2,0.3c-0.1,0.1-0.2,0.1-0.4,0.1c-0.2,0-0.4-0.1-0.5-0.2c-0.1-0.2-0.1-0.4-0.1-0.6c0-0.2,0-0.3,0.1-0.4
c0-0.1,0.1-0.2,0.2-0.3c0.1-0.1,0.2-0.1,0.4-0.1c0.2,0,0.3,0,0.4,0.1c0.1,0.1,0.2,0.2,0.2,0.3c0,0.1,0.1,0.3,0.1,0.4
C50.2,19.5,50.2,19.6,50.1,19.8z"/>
<polygon   points="58.1,20 57.4,18.3 57,18.3 57.9,20.4 58.2,20.4 59.1,18.3 58.8,18.3 "/>
<path  d="M67.3,18.5c0-0.1-0.1-0.1-0.2-0.1c-0.1,0-0.1-0.1-0.2-0.1c-0.1,0-0.2,0-0.3,0c-0.1,0-0.3,0-0.4,0
c-0.1,0-0.3,0.1-0.3,0.1v0.3c0.1-0.1,0.2-0.1,0.3-0.2c0.1,0,0.2,0,0.4,0c0.2,0,0.3,0,0.4,0.1c0.1,0.1,0.1,0.2,0.1,0.4v0.3
c0,0-0.1,0-0.1-0.1c-0.1,0-0.1,0-0.2-0.1c-0.1,0-0.2,0-0.3,0c-0.2,0-0.3,0-0.4,0.1c-0.1,0-0.2,0.1-0.3,0.2
c-0.1,0.1-0.1,0.2-0.1,0.4c0,0.1,0,0.2,0.1,0.3c0,0.1,0.1,0.1,0.2,0.2c0.1,0,0.2,0.1,0.3,0.1c0.1,0,0.2,0,0.3,0c0.2,0,0.3,0,0.5,0
c0.1,0,0.3-0.1,0.3-0.1c0.1-0.1,0.1-0.2,0.1-0.3v-1c0-0.1,0-0.2,0-0.2C67.4,18.6,67.4,18.5,67.3,18.5z M67,20.1c-0.1,0-0.2,0-0.4,0
c-0.1,0-0.2,0-0.3,0c-0.1,0-0.2-0.1-0.2-0.1c-0.1-0.1-0.1-0.1-0.1-0.2c0-0.1,0-0.2,0.1-0.3c0.1-0.1,0.2-0.1,0.4-0.1
c0.1,0,0.3,0,0.4,0.1c0.1,0,0.1,0.1,0.2,0.1v0.5C67.2,20,67.1,20.1,67,20.1z"/>
<path  d="M74.9,17.7h-0.3v0.6h-0.4v0.3h0.4v1.3c0,0.2,0.1,0.3,0.2,0.4c0.1,0.1,0.2,0.1,0.4,0.1c0.1,0,0.1,0,0.2,0
c0.1,0,0.1,0,0.1,0v-0.3c0,0-0.1,0-0.1,0c0,0-0.1,0-0.1,0c-0.1,0-0.2,0-0.2-0.1c0-0.1-0.1-0.1-0.1-0.3v-1.2h0.5v-0.3h-0.5V17.7z"/>
<rect x="82.3" y="17.6"  width="0.3" height="0.3"/>
<rect x="82.3" y="18.3"  width="0.3" height="2.1"/>
<path  d="M91,18.4c-0.1-0.1-0.3-0.1-0.6-0.1c-0.3,0-0.5,0.1-0.7,0.3c-0.2,0.2-0.2,0.5-0.2,0.8c0,0.3,0.1,0.6,0.2,0.8
c0.2,0.2,0.4,0.3,0.7,0.3c0.3,0,0.5-0.1,0.7-0.3c0.2-0.2,0.2-0.5,0.2-0.8c0-0.2,0-0.4-0.1-0.6C91.2,18.6,91.1,18.5,91,18.4z
M91,19.8c0,0.1-0.1,0.2-0.2,0.3c-0.1,0.1-0.2,0.1-0.4,0.1c-0.2,0-0.4-0.1-0.5-0.2c-0.1-0.2-0.1-0.4-0.1-0.6c0-0.2,0-0.3,0.1-0.4
c0-0.1,0.1-0.2,0.2-0.3c0.1-0.1,0.2-0.1,0.4-0.1c0.2,0,0.3,0,0.4,0.1c0.1,0.1,0.2,0.2,0.2,0.3c0,0.1,0.1,0.3,0.1,0.4
C91.1,19.5,91.1,19.6,91,19.8z"/>
<path   d="M99.7,18.3c-0.1-0.1-0.3-0.1-0.5-0.1c-0.1,0-0.2,0-0.2,0c-0.1,0-0.2,0-0.2,0c-0.1,0-0.1,0-0.2,0.1
c-0.1,0-0.1,0.1-0.2,0.1v1.9h0.3v-1.8c0.1,0,0.2,0,0.3-0.1c0.1,0,0.2,0,0.3,0c0.1,0,0.2,0,0.3,0c0.1,0,0.1,0.1,0.2,0.1
c0,0.1,0.1,0.1,0.1,0.2c0,0.1,0,0.1,0,0.2v1.4h0.3V19c0-0.2,0-0.3-0.1-0.4C99.9,18.5,99.8,18.4,99.7,18.3z"/>
<path  d="M10.2,0.3c-0.4-0.4-1-0.4-1.4,0L7.2,1.9L15,9.7c1,1,1,2.6,0,3.6L11.3,17c-1,1-2.6,1-3.6,0l-3.6-3.6
c-1-1-1-2.6,0-3.6l3.1-3.1L4.8,4.3L1.7,7.4c-2.3,2.3-2.3,6,0,8.3l3.6,3.6c2.3,2.3,6,2.3,8.3,0l3.6-3.6c2.3-2.3,2.3-6,0-8.3
L10.2,0.3z"/>
<path  d="M10,13.3l1.5-1.5c0.2-0.2,0.2-0.6,0-0.8L9.6,9L7.6,11c-0.2,0.2-0.2,0.6,0,0.8l1.5,1.5
C9.4,13.5,9.8,13.5,10,13.3z"/>
</g>
</svg>