<!-- <svg version="1.1"
	 xmlns="http://www.w3.org/2000/svg" xmlns:xlink="http://www.w3.org/1999/xlink"
	 x="0px" y="0px" width="100px" height="100px" viewBox="0 0 100 100" style="overflow:scroll;enable-background:new 0 0 100 100;"
	 xml:space="preserve">
<g>
	<path style="fill:#26a4da;" d="M94,0H80.4v65.3c0,8.3-6.8,15.1-15.1,15.1H34.7c-8.3,0-15.1-6.8-15.1-15.1V34.7c0-8.3,6.8-15.1,15.1-15.1h26V0
		h-26C15.6,0,0,15.6,0,34.7v30.6C0,84.4,15.6,100,34.7,100h30.6c19.1,0,34.7-15.6,34.7-34.7V6C100,2.7,97.3,0,94,0z"/>
	<path style="fill:#fff;" d="M41.1,43.2v12.8c0,1.9,1.5,3.4,3.4,3.4h12.8c1.9,0,3.4-1.5,3.4-3.4V39.9H44.5C42.6,39.9,41.1,41.4,41.1,43.2z"/>
</g>
</svg> -->
<svg version="1.1"
	 xmlns="http://www.w3.org/2000/svg" xmlns:xlink="http://www.w3.org/1999/xlink" xmlns:a="http://ns.adobe.com/AdobeSVGViewerExtensions/3.0/"
	 x="0px" y="0px" width="100px" height="110.6px" viewBox="0 0 100 110.6"
	 style="overflow:scroll;enable-background:new 0 0 100 110.6;" xml:space="preserve">
<style type="text/css">
	.st0{fill:#FFFFFF;}
</style>
<defs>
</defs>
<g>
	<path style="fill:#26a4da;" d="M91,38.8L53.8,1.6c-2.1-2.1-5.5-2.1-7.6,0l-8.5,8.5l41,41c5.2,5.2,5.2,13.7,0,19L59.5,89.2
		c-5.2,5.2-13.7,5.2-19,0L21.3,70c-5.2-5.2-5.2-13.7,0-19l16.3-16.3L25.3,22.4L9,38.8c-12,12-12,31.6,0,43.6l19.2,19.2
		c12,12,31.6,12,43.6,0L91,82.4C103,70.3,103,50.8,91,38.8z"/>
	<path style="fill:#fff;" d="M52.5,70l8.1-8.1c1.2-1.2,1.2-3.1,0-4.3L50.4,47.5L40.2,57.7c-1.2,1.2-1.2,3.1,0,4.3l8.1,8.1
		C49.4,71.1,51.3,71.1,52.5,70z"/>
</g>
</svg>