<?xml version="1.0" encoding="utf-8"?>
<!-- Svg Vector Icons : http://www.onlinewebfonts.com/icon -->
<!DOCTYPE svg PUBLIC "-//W3C//DTD SVG 1.1//EN" "http://www.w3.org/Graphics/SVG/1.1/DTD/svg11.dtd">
<svg version="1.1" xmlns="http://www.w3.org/2000/svg" xmlns:xlink="http://www.w3.org/1999/xlink" x="0px" y="0px" viewBox="0 0 1000 1000" enable-background="new 0 0 1000 1000" xml:space="preserve">
<metadata> Svg Vector Icons : http://www.onlinewebfonts.com/icon </metadata>
<g><path style="fill: #4f448d;" d="M920.1,528.1h-90.6v-88.5c0-37.7-31.3-68.3-69.9-68.3c-38.6,0-69.9,30.6-69.9,68.3v88.5H599c-38.6,0-69.9,30.6-69.9,68.3c0,37.7,31.3,68.3,69.9,68.3h90.6v88.5c0,37.7,31.3,68.3,69.9,68.3c38.6,0,69.9-30.6,69.9-68.3v-88.5h90.6c38.6,0,69.9-30.6,69.9-68.3C990,558.7,958.7,528.1,920.1,528.1z M375.2,391.9c100.9,0,182.6-79.8,182.6-178.4S476,35,375.2,35c-100.8,0-182.6,79.9-182.6,178.5S274.3,391.9,375.2,391.9z M585.9,742.1c0,0-169.9,17-156.2-143.1c5.8-67.8,51.8-97,95.7-109.4c-46.6-29.9-98.6-46.7-153.5-46.7C172,442.8,10,664.4,10,937.7c0,9.1,0.2,18.2,0.6,27.2H733c0.4-9,0.6-18.1,0.6-27.2c0-12.9-0.4-25.8-1.2-38.4C679.8,897.4,584.7,875.6,585.9,742.1z"/></g>
</svg>